<?xml version="1.0" standalone="no"?>
<!DOCTYPE svg PUBLIC "-//W3C//DTD SVG 20010904//EN"
 "http://www.w3.org/TR/2001/REC-SVG-20010904/DTD/svg10.dtd">
<svg version="1.0" xmlns="http://www.w3.org/2000/svg"
 width="1254.000000pt" height="1254.000000pt" viewBox="0 0 1254.000000 1254.000000"
 preserveAspectRatio="xMidYMid meet">

<g transform="translate(0.000000,1254.000000) scale(0.100000,-0.100000)"
fill="#000000" stroke="none">
<path d="M1725 12530 c-393 -29 -781 -195 -1087 -464 -247 -218 -439 -507
-543 -818 -48 -144 -72 -262 -85 -416 -8 -90 -10 -1448 -8 -4657 l4 -4530 21
-111 c142 -726 690 -1300 1412 -1480 75 -19 187 -38 255 -44 86 -8 1431 -10
4661 -8 4245 4 4546 5 4625 21 446 90 826 306 1102 626 230 266 367 553 436
911 15 78 17 470 20 4615 2 3233 0 4567 -8 4660 -38 454 -226 846 -557 1166
-224 215 -456 354 -758 454 -127 42 -235 62 -405 75 -157 12 -8923 12 -9085 0z
m4728 -2755 c325 -57 593 -272 735 -590 115 -258 556 -1254 595 -1345 25 -58
100 -229 167 -380 150 -339 238 -538 345 -785 45 -104 107 -246 137 -315 337
-768 693 -1573 797 -1802 39 -86 78 -185 86 -220 19 -81 19 -225 0 -306 -68
-289 -354 -496 -660 -479 -202 11 -394 124 -492 288 -18 30 -133 293 -258 584
-124 292 -232 545 -240 563 l-15 32 -1383 0 -1384 0 -91 -212 c-272 -641 -399
-928 -428 -973 -17 -28 -62 -79 -98 -113 -154 -144 -377 -203 -576 -153 -123
30 -202 74 -293 160 -144 137 -211 326 -187 522 12 105 27 146 150 419 50 113
179 403 285 645 106 242 223 508 260 590 37 83 120 272 185 420 431 984 568
1296 895 2035 84 190 194 440 245 555 51 116 107 242 125 282 120 262 330 452
600 542 153 51 336 64 498 36z"/>
<path d="M6233 8098 c-18 -40 -78 -176 -133 -303 -91 -206 -214 -486 -305
-695 -175 -401 -364 -844 -361 -847 1 -2 379 -2 838 -1 l835 3 -149 345 c-227
527 -314 728 -463 1065 -74 171 -155 354 -178 407 -23 54 -44 98 -47 98 -3 0
-20 -33 -37 -72z"/>
</g>
</svg>
