<?xml version="1.0" standalone="no"?>
<!DOCTYPE svg PUBLIC "-//W3C//DTD SVG 20010904//EN"
 "http://www.w3.org/TR/2001/REC-SVG-20010904/DTD/svg10.dtd">
<svg version="1.0" xmlns="http://www.w3.org/2000/svg"
 width="512.000000pt" height="512.000000pt" viewBox="0 0 512.000000 512.000000"
 preserveAspectRatio="xMidYMid meet">

<g transform="translate(0.000000,512.000000) scale(0.100000,-0.100000)"
fill="#000000" stroke="none">
<path d="M0 2560 l0 -2560 2560 0 2560 0 0 2560 0 2560 -2560 0 -2560 0 0
-2560z m2670 1348 c95 -29 193 -107 234 -185 8 -17 201 -462 427 -990 385
-895 412 -962 412 -1018 2 -100 -51 -187 -140 -231 -51 -26 -174 -26 -221 -1
-73 39 -100 83 -201 317 l-97 225 -529 0 -529 0 -93 -214 c-106 -248 -131
-289 -199 -321 -176 -86 -370 33 -367 225 1 56 28 125 413 1020 226 528 422
978 435 1001 31 53 101 117 164 148 85 44 197 53 291 24z"/>
<path d="M2399 2898 l-155 -363 159 -3 c87 -1 227 -1 311 0 l152 3 -153 355
c-84 195 -154 358 -155 363 -2 4 -73 -156 -159 -355z"/>
</g>
</svg>
