<?xml version="1.0" standalone="no"?>
<!DOCTYPE svg PUBLIC "-//W3C//DTD SVG 20010904//EN"
 "http://www.w3.org/TR/2001/REC-SVG-20010904/DTD/svg10.dtd">
<svg version="1.0" xmlns="http://www.w3.org/2000/svg"
 width="400.000000pt" height="400.000000pt" viewBox="0 0 400.000000 400.000000"
 preserveAspectRatio="xMidYMid meet">

<g transform="translate(0.000000,400.000000) scale(0.100000,-0.100000)"
fill="#000000" stroke="none">
<path d="M1125 3335 c-74 -19 -164 -62 -215 -103 -58 -47 -131 -112 -124 -112
2 0 -5 -10 -17 -22 -30 -33 -87 -152 -108 -228 -13 -49 -18 -110 -20 -245 -2
-104 -7 -181 -12 -183 -35 -13 -126 -86 -163 -131 -83 -101 -113 -190 -110
-320 4 -113 18 -168 65 -246 45 -73 89 -118 166 -167 l52 -33 2 -145 c0 -80 3
-169 5 -198 4 -52 38 -163 66 -212 100 -182 269 -306 457 -337 25 -5 404 -8
841 -8 749 0 799 1 865 19 161 44 305 151 387 288 95 159 98 195 98 1048 0
423 -4 744 -10 785 -17 117 -49 200 -110 288 -88 127 -200 208 -353 256 -66
20 -83 21 -890 20 -634 -1 -833 -4 -872 -14z m1119 -341 c224 -54 434 -192
577 -379 49 -63 136 -215 124 -215 -4 0 -2 -6 4 -14 19 -23 50 -124 66 -215
31 -179 11 -382 -54 -545 -33 -83 -110 -220 -119 -211 -3 3 -17 35 -32 72
l-27 67 23 41 c72 130 106 329 85 505 -32 263 -164 487 -377 637 -50 36 -185
99 -249 118 -77 22 -88 24 -220 31 -305 17 -580 -110 -762 -351 -154 -205
-213 -508 -148 -760 122 -470 576 -752 1051 -655 95 19 135 33 197 65 30 16
69 20 81 8 3 -4 12 -8 19 -9 7 -1 30 -9 52 -18 39 -17 39 -18 20 -32 -50 -38
-149 -86 -231 -113 -339 -112 -713 -38 -985 194 -62 52 -188 194 -189 211 0 6
-6 16 -13 22 -12 10 -69 119 -81 155 -5 15 -19 17 -103 17 -115 1 -169 11
-240 46 -102 51 -176 151 -203 276 -32 144 63 325 206 393 68 32 90 37 222 42
l112 5 30 62 c48 100 109 185 195 271 259 261 617 364 969 279z m-62 -293
c169 -43 321 -152 426 -304 72 -104 114 -232 128 -391 7 -88 -54 -303 -112
-387 -13 -19 -24 -39 -24 -44 0 -11 73 -210 96 -260 7 -16 11 -31 10 -33 -2
-1 -66 22 -141 53 -76 30 -144 55 -151 55 -7 0 -32 -13 -56 -29 -57 -38 -153
-69 -263 -86 -137 -22 -283 3 -414 69 -65 34 -147 92 -183 131 -16 17 -39 41
-51 55 -99 106 -177 309 -177 458 0 50 21 173 40 232 76 236 304 441 545 490
79 16 248 11 327 -9z"/>
<path d="M818 2230 c-120 -36 -186 -135 -174 -257 8 -77 44 -135 110 -180 36
-23 53 -28 134 -31 55 -3 98 0 104 6 6 6 5 24 -2 53 -17 63 -19 246 -4 326 7
37 13 74 14 81 0 14 -136 16 -182 2z"/>
</g>
</svg>
