<?xml version="1.0" standalone="no"?>
<!DOCTYPE svg PUBLIC "-//W3C//DTD SVG 20010904//EN"
 "http://www.w3.org/TR/2001/REC-SVG-20010904/DTD/svg10.dtd">
<svg version="1.0" xmlns="http://www.w3.org/2000/svg"
 width="240.000000pt" height="240.000000pt" viewBox="0 0 240.000000 240.000000"
 preserveAspectRatio="xMidYMid meet">

<g transform="translate(0.000000,240.000000) scale(0.100000,-0.100000)"
fill="#000000" stroke="none">
<path d="M0 1200 l0 -1200 1200 0 1200 0 0 1200 0 1200 -1200 0 -1200 0 0
-1200z m1523 528 c76 -36 169 -129 205 -205 24 -53 27 -69 27 -173 0 -107 -2
-119 -29 -175 -38 -77 -124 -163 -201 -201 -56 -27 -70 -29 -192 -32 l-133 -4
0 -151 0 -152 -75 0 -75 0 0 478 0 477 -65 0 -65 0 -2 -476 -3 -476 -73 -1
-72 -2 0 477 0 477 -66 3 -66 3 1 83 c0 45 0 83 1 85 0 1 186 0 412 -3 l413
-5 58 -27z"/>
<path d="M1200 1350 l0 -243 113 5 c131 6 174 23 231 90 93 109 66 276 -58
353 -46 28 -57 30 -168 34 l-118 3 0 -242z"/>
</g>
</svg>
